<?xml version="1.0" encoding="UTF-8"?>
<svg width="98px" height="98px" viewBox="0 0 98 98" version="1.1" xmlns="http://www.w3.org/2000/svg" xmlns:xlink="http://www.w3.org/1999/xlink">
    <!-- Generator: sketchtool 49.3 (51167) - http://www.bohemiancoding.com/sketch -->
    <title>3C64E790-024B-4CDE-A7B5-617FB17CA21D</title>
    <desc>Created with sketchtool.</desc>
    <defs>
        <circle id="path-1" cx="35" cy="35" r="35"></circle>
        <filter x="-40.7%" y="-27.9%" width="181.4%" height="181.4%" filterUnits="objectBoundingBox" id="filter-2">
            <feOffset dx="0" dy="7" in="SourceAlpha" result="shadowOffsetOuter1"></feOffset>
            <feGaussianBlur stdDeviation="7" in="shadowOffsetOuter1" result="shadowBlurOuter1"></feGaussianBlur>
            <feColorMatrix values="0 0 0 0 0.129411765   0 0 0 0 0.145098039   0 0 0 0 0.160784314  0 0 0 0.1 0" type="matrix" in="shadowBlurOuter1" result="shadowMatrixOuter1"></feColorMatrix>
            <feOffset dx="0" dy="2" in="SourceAlpha" result="shadowOffsetOuter2"></feOffset>
            <feGaussianBlur stdDeviation="2" in="shadowOffsetOuter2" result="shadowBlurOuter2"></feGaussianBlur>
            <feColorMatrix values="0 0 0 0 0.129411765   0 0 0 0 0.145098039   0 0 0 0 0.160784314  0 0 0 0.1 0" type="matrix" in="shadowBlurOuter2" result="shadowMatrixOuter2"></feColorMatrix>
            <feMerge>
                <feMergeNode in="shadowMatrixOuter1"></feMergeNode>
                <feMergeNode in="shadowMatrixOuter2"></feMergeNode>
            </feMerge>
        </filter>
    </defs>
    <g id="Page-1" stroke="none" stroke-width="1" fill="none" fill-rule="evenodd">
        <g id="PortalGuard-Homepage-Desktop-HD-version-2" transform="translate(-777.000000, -2102.000000)">
            <g id="Group-11" transform="translate(791.000000, 2109.000000)">
                <g id="Icon---Sync-Copy">
                    <g id="Icon-Background">
                        <use fill="black" fill-opacity="1" filter="url(#filter-2)" xlink:href="#path-1"></use>
                        <use fill="#17C671" fill-rule="evenodd" xlink:href="#path-1"></use>
                    </g>
                </g>
                <g id="Group-10" transform="translate(14.000000, 14.000000)" fill="#FFFFFF">
                    <path d="M20.7673294,10.6223222 L17.7822393,12.1916769 C17.537817,12.3201773 17.2355034,12.2262041 17.107003,11.9817818 C17.0558335,11.8844515 17.0381762,11.7729675 17.0567646,11.6645887 L17.6268661,8.34064196 C17.654685,8.17844493 17.6009108,8.01294483 17.4830678,7.89807625 L15.0680791,5.54404412 C14.8703373,5.35129352 14.8662912,5.03473688 15.0590418,4.83699509 C15.1357961,4.75825328 15.2363673,4.70700969 15.3451858,4.69119743 L18.682618,4.20624014 C18.8454731,4.18257592 18.9862559,4.08029123 19.0590869,3.93271949 L20.551632,0.908492875 C20.6738431,0.660866045 20.973656,0.559196546 21.2212829,0.681407693 C21.3198892,0.730072812 21.3997029,0.809886573 21.448368,0.908492875 L22.9409131,3.93271949 C23.0137441,4.08029123 23.1545269,4.18257592 23.317382,4.20624014 L26.6548142,4.69119743 C26.9280866,4.73090624 27.1174274,4.98462767 27.0777186,5.2579001 C27.0619063,5.36671861 27.0106627,5.46728982 26.9319209,5.54404412 L24.5169322,7.89807625 C24.3990892,8.01294483 24.345315,8.17844493 24.3731339,8.34064196 L24.9432354,11.6645887 C24.9899159,11.9367569 24.807122,12.1952349 24.5349538,12.2419154 C24.426575,12.2605038 24.3150909,12.2428464 24.2177607,12.1916769 L21.2326706,10.6223222 C21.0870086,10.5457431 20.9129914,10.5457431 20.7673294,10.6223222 Z" id="Star"></path>
                    <path d="M29.7673294,37.6223222 L26.7822393,39.1916769 C26.537817,39.3201773 26.2355034,39.2262041 26.107003,38.9817818 C26.0558335,38.8844515 26.0381762,38.7729675 26.0567646,38.6645887 L26.6268661,35.340642 C26.654685,35.1784449 26.6009108,35.0129448 26.4830678,34.8980762 L24.0680791,32.5440441 C23.8703373,32.3512935 23.8662912,32.0347369 24.0590418,31.8369951 C24.1357961,31.7582533 24.2363673,31.7070097 24.3451858,31.6911974 L27.682618,31.2062401 C27.8454731,31.1825759 27.9862559,31.0802912 28.0590869,30.9327195 L29.551632,27.9084929 C29.6738431,27.660866 29.973656,27.5591965 30.2212829,27.6814077 C30.3198892,27.7300728 30.3997029,27.8098866 30.448368,27.9084929 L31.9409131,30.9327195 C32.0137441,31.0802912 32.1545269,31.1825759 32.317382,31.2062401 L35.6548142,31.6911974 C35.9280866,31.7309062 36.1174274,31.9846277 36.0777186,32.2579001 C36.0619063,32.3667186 36.0106627,32.4672898 35.9319209,32.5440441 L33.5169322,34.8980762 C33.3990892,35.0129448 33.345315,35.1784449 33.3731339,35.340642 L33.9432354,38.6645887 C33.9899159,38.9367569 33.807122,39.1952349 33.5349538,39.2419154 C33.426575,39.2605038 33.3150909,39.2428464 33.2177607,39.1916769 L30.2326706,37.6223222 C30.0870086,37.5457431 29.9129914,37.5457431 29.7673294,37.6223222 Z" id="Star-Copy"></path>
                    <path d="M11.7673294,37.6223222 L8.78223931,39.1916769 C8.53781702,39.3201773 8.23550344,39.2262041 8.10700304,38.9817818 C8.0558335,38.8844515 8.03817616,38.7729675 8.05676459,38.6645887 L8.62686607,35.340642 C8.65468504,35.1784449 8.6009108,35.0129448 8.48306775,34.8980762 L6.06807911,32.5440441 C5.87033732,32.3512935 5.86629117,32.0347369 6.05904178,31.8369951 C6.13579608,31.7582533 6.23636728,31.7070097 6.3451858,31.6911974 L9.68261802,31.2062401 C9.8454731,31.1825759 9.98625589,31.0802912 10.0590869,30.9327195 L11.551632,27.9084929 C11.6738431,27.660866 11.973656,27.5591965 12.2212829,27.6814077 C12.3198892,27.7300728 12.3997029,27.8098866 12.448368,27.9084929 L13.9409131,30.9327195 C14.0137441,31.0802912 14.1545269,31.1825759 14.317382,31.2062401 L17.6548142,31.6911974 C17.9280866,31.7309062 18.1174274,31.9846277 18.0777186,32.2579001 C18.0619063,32.3667186 18.0106627,32.4672898 17.9319209,32.5440441 L15.5169322,34.8980762 C15.3990892,35.0129448 15.345315,35.1784449 15.3731339,35.340642 L15.9432354,38.6645887 C15.9899159,38.9367569 15.807122,39.1952349 15.5349538,39.2419154 C15.426575,39.2605038 15.3150909,39.2428464 15.2177607,39.1916769 L12.2326706,37.6223222 C12.0870086,37.5457431 11.9129914,37.5457431 11.7673294,37.6223222 Z" id="Star-Copy-2"></path>
                    <path d="M6.76732944,21.6223222 L3.78223931,23.1916769 C3.53781702,23.3201773 3.23550344,23.2262041 3.10700304,22.9817818 C3.0558335,22.8844515 3.03817616,22.7729675 3.05676459,22.6645887 L3.62686607,19.340642 C3.65468504,19.1784449 3.6009108,19.0129448 3.48306775,18.8980762 L1.06807911,16.5440441 C0.870337322,16.3512935 0.866291169,16.0347369 1.05904178,15.8369951 C1.13579608,15.7582533 1.23636728,15.7070097 1.3451858,15.6911974 L4.68261802,15.2062401 C4.8454731,15.1825759 4.98625589,15.0802912 5.0590869,14.9327195 L6.55163196,11.9084929 C6.67384311,11.660866 6.97365603,11.5591965 7.22128286,11.6814077 C7.31988916,11.7300728 7.39970292,11.8098866 7.44836804,11.9084929 L8.9409131,14.9327195 C9.01374411,15.0802912 9.1545269,15.1825759 9.31738198,15.2062401 L12.6548142,15.6911974 C12.9280866,15.7309062 13.1174274,15.9846277 13.0777186,16.2579001 C13.0619063,16.3667186 13.0106627,16.4672898 12.9319209,16.5440441 L10.5169322,18.8980762 C10.3990892,19.0129448 10.345315,19.1784449 10.3731339,19.340642 L10.9432354,22.6645887 C10.9899159,22.9367569 10.807122,23.1952349 10.5349538,23.2419154 C10.426575,23.2605038 10.3150909,23.2428464 10.2177607,23.1916769 L7.23267056,21.6223222 C7.08700855,21.5457431 6.91299145,21.5457431 6.76732944,21.6223222 Z" id="Star-Copy-3"></path>
                    <path d="M34.7673294,21.6223222 L31.7822393,23.1916769 C31.537817,23.3201773 31.2355034,23.2262041 31.107003,22.9817818 C31.0558335,22.8844515 31.0381762,22.7729675 31.0567646,22.6645887 L31.6268661,19.340642 C31.654685,19.1784449 31.6009108,19.0129448 31.4830678,18.8980762 L29.0680791,16.5440441 C28.8703373,16.3512935 28.8662912,16.0347369 29.0590418,15.8369951 C29.1357961,15.7582533 29.2363673,15.7070097 29.3451858,15.6911974 L32.682618,15.2062401 C32.8454731,15.1825759 32.9862559,15.0802912 33.0590869,14.9327195 L34.551632,11.9084929 C34.6738431,11.660866 34.973656,11.5591965 35.2212829,11.6814077 C35.3198892,11.7300728 35.3997029,11.8098866 35.448368,11.9084929 L36.9409131,14.9327195 C37.0137441,15.0802912 37.1545269,15.1825759 37.317382,15.2062401 L40.6548142,15.6911974 C40.9280866,15.7309062 41.1174274,15.9846277 41.0777186,16.2579001 C41.0619063,16.3667186 41.0106627,16.4672898 40.9319209,16.5440441 L38.5169322,18.8980762 C38.3990892,19.0129448 38.345315,19.1784449 38.3731339,19.340642 L38.9432354,22.6645887 C38.9899159,22.9367569 38.807122,23.1952349 38.5349538,23.2419154 C38.426575,23.2605038 38.3150909,23.2428464 38.2177607,23.1916769 L35.2326706,21.6223222 C35.0870086,21.5457431 34.9129914,21.5457431 34.7673294,21.6223222 Z" id="Star-Copy-4"></path>
                </g>
            </g>
        </g>
    </g>
</svg>