<?xml version="1.0" encoding="UTF-8"?>
<svg width="98px" height="98px" viewBox="0 0 98 98" version="1.1" xmlns="http://www.w3.org/2000/svg" xmlns:xlink="http://www.w3.org/1999/xlink">
    <!-- Generator: sketchtool 49.3 (51167) - http://www.bohemiancoding.com/sketch -->
    <title>783444C0-B587-4B24-92E1-AA1C8186417D</title>
    <desc>Created with sketchtool.</desc>
    <defs>
        <circle id="path-1" cx="35" cy="35" r="35"></circle>
        <filter x="-40.7%" y="-27.9%" width="181.4%" height="181.4%" filterUnits="objectBoundingBox" id="filter-2">
            <feOffset dx="0" dy="7" in="SourceAlpha" result="shadowOffsetOuter1"></feOffset>
            <feGaussianBlur stdDeviation="7" in="shadowOffsetOuter1" result="shadowBlurOuter1"></feGaussianBlur>
            <feColorMatrix values="0 0 0 0 0.129411765   0 0 0 0 0.145098039   0 0 0 0 0.160784314  0 0 0 0.1 0" type="matrix" in="shadowBlurOuter1" result="shadowMatrixOuter1"></feColorMatrix>
            <feOffset dx="0" dy="2" in="SourceAlpha" result="shadowOffsetOuter2"></feOffset>
            <feGaussianBlur stdDeviation="2" in="shadowOffsetOuter2" result="shadowBlurOuter2"></feGaussianBlur>
            <feColorMatrix values="0 0 0 0 0.129411765   0 0 0 0 0.145098039   0 0 0 0 0.160784314  0 0 0 0.1 0" type="matrix" in="shadowBlurOuter2" result="shadowMatrixOuter2"></feColorMatrix>
            <feMerge>
                <feMergeNode in="shadowMatrixOuter1"></feMergeNode>
                <feMergeNode in="shadowMatrixOuter2"></feMergeNode>
            </feMerge>
        </filter>
    </defs>
    <g id="Page-1" stroke="none" stroke-width="1" fill="none" fill-rule="evenodd">
        <g id="PortalGuard-Homepage-Desktop-HD-version-2" transform="translate(-827.000000, -3388.000000)">
            <g id="Icon---Sync" transform="translate(841.000000, 3395.000000)">
                <g id="Icon-Background">
                    <use fill="black" fill-opacity="1" filter="url(#filter-2)" xlink:href="#path-1"></use>
                    <use fill="#17C671" fill-rule="evenodd" xlink:href="#path-1"></use>
                </g>
                <path d="M49.8818934,37.8970588 C49.8818934,37.9598655 49.8756128,38.0038295 49.8630515,38.0289522 C49.0591259,41.3953906 47.3759319,44.1243002 44.8134191,46.2157629 C42.2509063,48.3072255 39.2487917,49.3529412 35.8069853,49.3529412 C33.97303,49.3529412 32.1987678,49.0075096 30.4841452,48.316636 C28.7695227,47.6257625 27.2402028,46.6397123 25.8961397,45.3584559 L23.4655331,47.7890625 C23.2268677,48.0277279 22.9442418,48.1470588 22.6176471,48.1470588 C22.2910523,48.1470588 22.0084264,48.0277279 21.769761,47.7890625 C21.5310956,47.5503971 21.4117647,47.2677712 21.4117647,46.9411765 L21.4117647,38.5 C21.4117647,38.1734052 21.5310956,37.8907794 21.769761,37.652114 C22.0084264,37.4134486 22.2910523,37.2941176 22.6176471,37.2941176 L31.0588235,37.2941176 C31.3854183,37.2941176 31.6680441,37.4134486 31.9067096,37.652114 C32.145375,37.8907794 32.2647059,38.1734052 32.2647059,38.5 C32.2647059,38.8265948 32.145375,39.1092206 31.9067096,39.347886 L29.3253676,41.9292279 C30.2172226,42.7582762 31.2283951,43.3988948 32.3589154,43.8511029 C33.4894358,44.3033111 34.6639032,44.5294118 35.8823529,44.5294118 C37.5655721,44.5294118 39.1357158,44.1211744 40.5928309,43.3046875 C42.049946,42.4882006 43.2181329,41.3639777 44.0974265,39.9319853 C44.2356012,39.7184426 44.5684716,38.9836153 45.0960478,37.7274816 C45.1965385,37.4385709 45.3849557,37.2941176 45.6613051,37.2941176 L49.2789522,37.2941176 C49.4422496,37.2941176 49.5835625,37.3537831 49.7028952,37.4731158 C49.8222279,37.5924485 49.8818934,37.7337614 49.8818934,37.8970588 Z M50.3529412,22.8235294 L50.3529412,31.2647059 C50.3529412,31.5913007 50.2336103,31.8739265 49.9949449,32.1125919 C49.7562794,32.3512573 49.4736536,32.4705882 49.1470588,32.4705882 L40.7058824,32.4705882 C40.3792876,32.4705882 40.0966617,32.3512573 39.8579963,32.1125919 C39.6193309,31.8739265 39.5,31.5913007 39.5,31.2647059 C39.5,30.9381111 39.6193309,30.6554853 39.8579963,30.4168199 L42.4581801,27.816636 C40.5991022,26.0957328 38.4071817,25.2352941 35.8823529,25.2352941 C34.1991337,25.2352941 32.6289901,25.6435315 31.171875,26.4600184 C29.7147599,27.2765053 28.546573,28.4007281 27.6672794,29.8327206 C27.5291047,30.0462633 27.1962343,30.7810905 26.6686581,32.0372243 C26.5681674,32.326135 26.3797502,32.4705882 26.1034007,32.4705882 L22.3538603,32.4705882 C22.1905629,32.4705882 22.04925,32.4109228 21.9299173,32.2915901 C21.8105846,32.1722574 21.7509191,32.0309444 21.7509191,31.8676471 L21.7509191,31.7357537 C22.567406,28.3693153 24.2631611,25.6404057 26.8382353,23.548943 C29.4133094,21.4574804 32.4279852,20.4117647 35.8823529,20.4117647 C37.7163082,20.4117647 39.4999913,20.7603366 41.2334559,21.4574908 C42.9669204,22.154645 44.5056612,23.1375549 45.8497243,24.40625 L48.2991728,21.9756434 C48.5378382,21.736978 48.8204641,21.6176471 49.1470588,21.6176471 C49.4736536,21.6176471 49.7562794,21.736978 49.9949449,21.9756434 C50.2336103,22.2143088 50.3529412,22.4969346 50.3529412,22.8235294 Z" id="refresh_icon" fill="#FFFFFF"></path>
            </g>
        </g>
    </g>
</svg>